<!--?xml version="1.0" encoding="utf-8"?-->
<!-- Generator: Adobe Illustrator 15.1.0, SVG Export Plug-In . SVG Version: 6.00 Build 0)  -->

<svg version="1.1" id="_x32_" xmlns="http://www.w3.org/2000/svg" xmlns:xlink="http://www.w3.org/1999/xlink" x="0px" y="0px" width="512px" height="512px" viewBox="0 0 512 512" style="width: 256px; height: 256px; opacity: 1;" xml:space="preserve">
<style type="text/css">

	.st0{fill:#4B4B4B;}

</style>
<g>
	<path class="st0" d="M242.47,156.672c2.531-5.156,7.781-8.422,13.531-8.422c5.734,0,10.984,3.266,13.516,8.422l15.016,30.422
		c2.203,4.438,6.453,7.531,11.359,8.25l33.578,4.875c5.672,0.828,10.406,4.813,12.172,10.266c1.781,5.453,0.297,11.453-3.813,15.469
		l-24.297,23.672c-3.547,3.469-5.172,8.453-4.344,13.359l5.75,33.422c0.969,5.656-1.359,11.375-6.016,14.766
		c-4.641,3.375-10.797,3.813-15.891,1.141l-30.016-15.781c-4.406-2.313-9.641-2.313-14.047,0l-30.016,15.781
		c-5.078,2.672-11.234,2.234-15.891-1.141c-4.641-3.391-6.969-9.109-6-14.766l5.734-33.422c0.828-4.906-0.797-9.891-4.344-13.359
		l-24.281-23.672c-4.125-4.016-5.609-10.016-3.828-15.469s6.5-9.438,12.188-10.266l33.563-4.875
		c4.922-0.719,9.156-3.813,11.359-8.25L242.47,156.672z" style="fill: rgb(87, 168, 255);"></path>
	<path class="st0" d="M361.298,458.578c-49.344-28.125-125.906-47.156-134.703-48.266c-27.625-3.422-53.047-13.344-74.906-28.047
		c6.984-6.453,11.469-16.828,11.281-28.563c-0.25-15.094-8.125-27.797-18.891-32.5c-10.625,5.047-18.078,18.016-17.828,33.109
		c0.047,2.781,0.438,5.438,0.969,8.031c-16.734-16.344-30.078-36-39.156-57.813c11.188-1.547,22.297-10,28.266-23
		c6.625-14.453,4.938-30.094-3.172-39.469c-12.359,0-25.328,8.906-31.953,23.344c-1.234,2.688-2.094,5.406-2.766,8.125
		c-2.391-11.5-3.766-23.344-3.766-35.484c0-18.125,4.188-37.719,11.281-56.859c9.344,5.281,22.531,5.469,34.641-0.563
		c13.734-6.875,21.922-19.656,21.516-31.609c-9.313-7.516-24.453-8.656-38.188-1.797c-1.063,0.531-2.047,1.156-3.047,1.766
		c10.797-19.359,24.109-36.922,38.469-50.406c15.219-11.141,30.094-7.359,42.141-17.125c17.5-14.156,28.313-40.859,23.938-57.859
		c-21.938,4-40.344,2.797-57.844,16.969c-11.828,9.563-13.969,25.938-24.844,36.625c-12.953,9.906-24.438,21.25-34.328,33.578
		c0.156-1.406,0.328-2.797,0.359-4.266c0.359-17.016-7.969-31.688-19.922-37.438c-12.172,5.25-21.125,19.531-21.469,36.563
		c-0.375,17,7.922,31.625,19.844,37.406c-12.984,24.344-20.906,50.672-23.469,76.531c-1.063-2.25-2.25-4.5-3.734-6.656
		C30.923,199.656,16.47,193,4.126,195.172c-6.438,10.734-5.438,26.609,3.672,39.859c9,13.141,23.25,19.75,35.531,17.781
		c1.984,27.563,9.406,53.75,21.313,77.438c-3.078-1.719-6.438-3.125-10.063-4.109c-15.531-4.234-30.891,0.063-38.906,9.703
		c2.047,12.375,13.078,23.844,28.625,28.063c14.031,3.844,27.859,0.656,36.328-7.109c13.813,19.484,30.938,36.484,50.609,50.188
		c-2.5,0.172-5.031,0.516-7.578,1.172c-14.141,3.703-24.281,14.031-26.234,25.25c7.203,8.813,21.078,12.844,35.234,9.125
		c11.938-3.125,20.969-11,24.672-20.125c20.031,9.906,41.953,16.688,65.172,19.563c8.844,1.375,79.563,19.594,123,44.344
		c2.484,1.406,5.203,2.094,7.875,2.094c5.547,0,10.938-2.906,13.891-8.063C371.626,472.688,368.955,462.938,361.298,458.578z" style="fill: rgb(87, 168, 255);"></path>
	<path class="st0" d="M150.689,458.578c49.344-28.125,125.922-47.156,134.703-48.266c27.625-3.422,53.047-13.344,74.922-28.047
		c-7-6.453-11.484-16.828-11.281-28.563c0.234-15.094,8.109-27.797,18.891-32.5c10.609,5.047,18.062,18.016,17.812,33.109
		c-0.047,2.781-0.422,5.438-0.953,8.031c16.719-16.344,30.063-36,39.156-57.813c-11.203-1.547-22.313-10-28.281-23
		c-6.625-14.453-4.922-30.094,3.172-39.469c12.375,0,25.344,8.906,31.969,23.344c1.219,2.688,2.078,5.406,2.75,8.125
		c2.406-11.5,3.781-23.344,3.781-35.484c0-18.125-4.203-37.719-11.297-56.859c-9.328,5.281-22.531,5.469-34.641-0.563
		c-13.734-6.875-21.921-19.656-21.5-31.609c9.297-7.516,24.453-8.656,38.171-1.797c1.078,0.531,2.047,1.156,3.047,1.766
		c-10.781-19.359-24.109-36.922-38.453-50.406c-15.219-11.141-30.109-7.359-42.156-17.125c-17.5-14.156-28.313-40.859-23.938-57.859
		c21.938,4,40.359,2.797,57.844,16.969c11.828,9.563,13.969,25.938,24.843,36.625c12.969,9.906,24.438,21.25,34.328,33.578
		c-0.141-1.406-0.328-2.797-0.359-4.266c-0.359-17.016,7.984-31.688,19.938-37.438c12.172,5.25,21.109,19.531,21.469,36.563
		c0.375,17-7.938,31.625-19.859,37.406c13,24.344,20.906,50.672,23.469,76.531c1.063-2.25,2.25-4.5,3.734-6.656
		c9.094-13.25,23.563-19.906,35.891-17.734c6.453,10.734,5.453,26.609-3.656,39.859c-9,13.141-23.266,19.75-35.547,17.781
		c-1.969,27.563-9.406,53.75-21.313,77.438c3.078-1.719,6.438-3.125,10.063-4.109c15.547-4.234,30.891,0.063,38.906,9.703
		c-2.031,12.375-13.078,23.844-28.609,28.063c-14.047,3.844-27.875,0.656-36.344-7.109c-13.813,19.484-30.922,36.484-50.609,50.188
		c2.5,0.172,5.031,0.516,7.593,1.172c14.125,3.703,24.266,14.031,26.219,25.25c-7.203,8.813-21.078,12.844-35.218,9.125
		c-11.953-3.125-20.984-11-24.672-20.125c-20.047,9.906-41.969,16.688-65.188,19.563c-8.828,1.375-79.547,19.594-122.984,44.344
		c-2.5,1.406-5.219,2.094-7.891,2.094c-5.547,0-10.938-2.906-13.891-8.063C140.361,472.688,143.033,462.938,150.689,458.578z" style="fill: rgb(87, 168, 255);"></path>
</g>
</svg>
