<!--?xml version="1.0" encoding="utf-8"?-->
<!-- Generator: Adobe Illustrator 18.1.1, SVG Export Plug-In . SVG Version: 6.00 Build 0)  -->

<svg version="1.1" id="_x32_" xmlns="http://www.w3.org/2000/svg" xmlns:xlink="http://www.w3.org/1999/xlink" x="0px" y="0px" viewBox="0 0 512 512" style="width: 256px; height: 256px; opacity: 1;" xml:space="preserve">
<style type="text/css">
	.st0{fill:#4B4B4B;}
</style>
<g>
	<path class="st0" d="M497.004,258.8L262.098,23.873c-8.977-8.954-20.938-14.277-33.581-14.911L53.749,0.067
		C39.297-0.673,25.22,4.756,14.974,14.99C4.752,25.224-0.676,39.313,0.076,53.764l8.883,174.757
		c0.634,12.655,5.945,24.616,14.899,33.57l234.927,234.928c19.976,19.974,52.382,19.974,72.357,0l165.862-165.874
		C517.002,311.158,516.978,278.764,497.004,258.8z M154.587,154.59c-16.45,16.45-43.098,16.45-59.548,0
		c-16.45-16.45-16.45-43.11,0-59.56s43.098-16.45,59.548,0C171.037,111.48,171.037,138.14,154.587,154.59z" style="fill: rgb(82, 96, 109);"></path>
</g>
</svg>
